# xmcd
#
# Track frame offsets: 
#        150
#        10069
#        23418
#        35952
#        44536
#        62215
#        72997
#        84289
#        96007
#        110942
#        124285
#        130760
#        139372
#        148403
#        164166
#        176077
#        187948
#        202150
#        213381
#
# Disc length: 2980 seconds
#
# Revision: 0
# Processed by: cddbd v1.5.1PL0 Copyright (c) Steve Scherf et al.
# Submitted via: ExactAudioCopy v0.95a5
#
DISCID=2c0ba213
DTITLE=Joe Medwick - I'm An After Hour Man
DYEAR=2000
DGENRE=Blues
TTITLE0=Brought Down
TTITLE1=Your Sweet Love
TTITLE2=Why Did You Let Me
TTITLE3=After Hour Man
TTITLE4=When A Boy Becomes A Man
TTITLE5=I Came A Long Ways
TTITLE6=Get Soulful
TTITLE7=Barefootin'
TTITLE8=Baby Use Your Head
TTITLE9=Somebody Tell Me Where
TTITLE10=Don't Have To Be Rich
TTITLE11=Hip Shakin' Mama
TTITLE12=Out Of Sight
TTITLE13=Wedding Bells
TTITLE14=Secretly
TTITLE15=As Long As There Is Life
TTITLE16=Trees
TTITLE17=Fat Man
TTITLE18=Another Good Thing Like Me
EXTD=
EXTT0=
EXTT1=
EXTT2=
EXTT3=
EXTT4=
EXTT5=
EXTT6=
EXTT7=
EXTT8=
EXTT9=
EXTT10=
EXTT11=
EXTT12=
EXTT13=
EXTT14=
EXTT15=
EXTT16=
EXTT17=
EXTT18=
PLAYORDER=
